<svg width="48" height="48" viewBox="0 0 48 48" fill="none" xmlns="http://www.w3.org/2000/svg">
  <path d="M24 12C18.5 12 14 15.5 14 20C14 24.5 17 28 18.5 31C20 34 18.5 37 18.5 37C18.5 37 21.5 35.5 24 35.5C26.5 35.5 29.5 37 29.5 37C29.5 37 28 34 29.5 31C31 28 34 24.5 34 20C34 15.5 29.5 12 24 12Z" stroke="#7724C1" stroke-width="2.2" fill="none" stroke-linejoin="round"/>
  <path d="M20.5 18C21.5 16.5 22.8 15.8 24 15.8" stroke="#7724C1" stroke-width="1.8" stroke-linecap="round"/>
  <path d="M27.5 18C26.5 16.5 25.2 15.8 24 15.8" stroke="#7724C1" stroke-width="1.8" stroke-linecap="round"/>
  <path d="M19 23.5C20.5 25 22.2 26 24 26C25.8 26 27.5 25 29 23.5" stroke="#7724C1" stroke-width="1.8" stroke-linecap="round"/>
</svg>
