<svg width="48" height="48" viewBox="0 0 48 48" fill="none" xmlns="http://www.w3.org/2000/svg">
  <path d="M12 26C12 22.6863 14.6863 20 18 20H30C33.3137 20 36 22.6863 36 26V29C36 30.6569 34.6569 32 33 32H32C31.4477 32 31 31.5523 31 31V29.5C31 28.6716 30.3284 28 29.5 28H18.5C17.6716 28 17 28.6716 17 29.5V31C17 31.5523 16.5523 32 16 32H15C13.3431 32 12 30.6569 12 29V26Z" fill="#7724C1"/>
  <rect x="16" y="24" width="3" height="3" rx="0.5" fill="white"/>
  <rect x="21" y="24" width="3" height="3" rx="0.5" fill="white"/>
  <rect x="26" y="24" width="3" height="3" rx="0.5" fill="white"/>
  <rect x="31" y="24" width="3" height="3" rx="0.5" fill="white"/>
  <circle cx="19" cy="29" r="2" fill="white"/>
  <circle cx="29" cy="29" r="2" fill="white"/>
</svg>
